<?xml version="1.0" encoding="UTF-8" standalone="no"?>
<!DOCTYPE svg PUBLIC "-//W3C//DTD SVG 1.1//EN" "http://www.w3.org/Graphics/SVG/1.1/DTD/svg11.dtd">
<svg xmlns="http://www.w3.org/2000/svg" version="1.1" viewBox="0.00 0.00 1280.00 248.00">
<path fill="#0d6efd" d="
  M 219.87 33.00
  C 212.22 32.93 207.04 37.38 204.63 44.47
  Q 178.89 119.96 170.27 144.46
  Q 167.76 151.58 161.11 156.47
  Q 160.78 156.71 161.04 157.03
  Q 178.33 177.77 160.78 198.18
  A 0.24 0.24 0.0 0 0 160.93 198.58
  Q 180.02 201.32 198.78 205.94
  C 202.15 206.76 205.36 207.10 206.24 210.95
  C 207.93 218.37 200.79 218.29 195.75 217.04
  Q 116.00 197.34 36.00 211.22
  Q 25.06 213.12 11.37 217.19
  C 0.79 220.34 -0.95 208.43 8.02 206.04
  Q 26.91 200.99 46.26 198.16
  A 0.56 0.55 61.9 0 0 46.55 197.20
  C 31.32 183.34 37.02 157.88 56.75 152.04
  Q 61.11 150.74 69.39 150.83
  Q 100.36 151.16 131.34 150.97
  C 146.31 150.88 155.54 151.73 160.91 137.28
  Q 161.76 134.99 159.32 134.99
  Q 109.47 135.02 58.75 134.98
  Q 46.50 134.97 43.45 123.81
  Q 34.23 90.08 25.06 56.35
  C 22.48 46.85 27.15 40.00 37.57 40.02
  Q 104.65 40.14 171.75 39.99
  C 177.32 39.98 184.86 39.52 184.77 46.03
  Q 184.69 51.77 178.50 51.78
  Q 107.89 51.92 37.12 52.05
  A 1.10 1.10 0.0 0 0 36.06 53.43
  L 54.74 121.98
  A 2.17 2.17 0.0 0 0 56.77 123.58
  C 92.57 124.71 128.63 124.02 164.48 123.98
  A 0.85 0.85 0.0 0 0 165.28 123.41
  L 171.72 105.54
  Q 171.92 104.98 171.33 104.98
  Q 123.40 105.01 75.50 105.02
  Q 71.25 105.02 67.02 104.77
  C 59.15 104.28 59.58 94.01 67.51 94.01
  Q 121.22 94.00 174.93 94.00
  Q 175.46 94.00 175.64 93.50
  L 180.56 79.54
  Q 180.75 78.99 180.17 78.99
  Q 118.66 79.00 57.17 79.00
  Q 53.95 79.00 52.48 78.21
  C 48.95 76.32 49.13 70.28 52.77 68.66
  Q 54.26 68.01 57.95 68.01
  Q 120.96 68.00 183.97 68.00
  Q 184.49 68.00 184.65 67.51
  Q 192.53 43.95 195.00 37.78
  C 199.73 25.99 209.35 21.90 221.85 21.24
  Q 232.72 20.66 243.61 21.17
  C 249.33 21.44 252.23 25.43 248.95 30.89
  Q 248.68 31.32 248.20 31.47
  C 246.52 31.98 245.29 32.76 243.52 32.80
  Q 231.69 33.11 219.87 33.00
  Z
  M 80.64 177.57
  A 15.65 15.65 0.0 0 0 64.99 161.92
  A 15.65 15.65 0.0 0 0 49.34 177.57
  A 15.65 15.65 0.0 0 0 64.99 193.22
  A 15.65 15.65 0.0 0 0 80.64 177.57
  Z
  M 158.19 177.55
  A 15.61 15.61 0.0 0 0 142.58 161.94
  A 15.61 15.61 0.0 0 0 126.97 177.55
  A 15.61 15.61 0.0 0 0 142.58 193.16
  A 15.61 15.61 0.0 0 0 158.19 177.55
  Z
  M 87.99 162.98
  C 94.10 174.48 93.08 183.86 86.28 194.74
  A 0.05 0.04 -76.2 0 0 86.32 194.81
  Q 103.50 193.07 120.36 194.89
  A 0.70 0.70 0.0 0 0 120.97 193.73
  C 113.66 185.28 114.54 171.80 119.58 162.58
  Q 119.90 162.00 119.23 162.00
  L 88.58 162.00
  A 0.67 0.67 0.0 0 0 87.99 162.98
  Z"
/>
<path fill="#21313c" d="
  M 824.18 147.56
  C 815.81 108.50 828.67 62.58 872.13 51.24
  C 910.42 41.25 950.74 60.22 955.96 102.45
  Q 956.03 103.00 955.47 103.00
  L 924.74 103.00
  Q 924.27 103.00 924.17 102.54
  Q 919.31 78.93 895.91 76.81
  C 874.69 74.89 859.99 88.00 855.66 108.54
  C 851.03 130.52 853.76 162.77 879.00 172.00
  C 897.83 178.89 919.62 170.33 924.07 149.55
  Q 924.20 148.97 924.79 148.97
  L 955.40 149.06
  A 0.67 0.66 4.9 0 1 956.05 149.82
  C 949.78 189.21 911.68 208.51 874.65 200.22
  C 847.67 194.17 829.88 174.17 824.18 147.56
  Z"
/>
<path fill="#21313c" d="
  M 324.33 112.25
  L 383.92 112.25
  A 0.58 0.58 0.0 0 1 384.50 112.83
  L 384.50 137.67
  A 0.58 0.58 0.0 0 1 383.92 138.25
  L 324.33 138.25
  A 0.58 0.58 0.0 0 0 323.75 138.83
  L 323.75 199.42
  A 0.58 0.58 0.0 0 1 323.17 200.00
  L 292.83 200.00
  A 0.58 0.58 0.0 0 1 292.25 199.42
  L 292.25 51.33
  A 0.58 0.58 0.0 0 1 292.83 50.75
  L 390.42 50.75
  A 0.58 0.58 0.0 0 1 391.00 51.33
  L 391.00 76.17
  A 0.58 0.58 0.0 0 1 390.42 76.75
  L 324.33 76.75
  A 0.58 0.58 0.0 0 0 323.75 77.33
  L 323.75 111.67
  A 0.58 0.58 0.0 0 0 324.33 112.25
  Z"
/>
<path fill="#21313c" d="
  M 733.06 133.31
  Q 732.94 166.42 733.02 199.47
  A 0.53 0.53 0.0 0 1 732.49 200.00
  L 702.63 200.00
  Q 702.00 200.00 702.00 199.38
  L 702.00 51.25
  A 0.50 0.50 0.0 0 1 702.50 50.75
  L 731.49 50.75
  Q 731.99 50.75 731.99 51.25
  C 732.01 70.05 732.03 88.81 732.28 107.57
  A 0.59 0.59 0.0 0 0 733.41 107.78
  C 740.09 91.41 755.68 84.67 772.65 86.98
  C 794.85 90.00 805.43 107.12 805.47 128.46
  Q 805.54 163.98 805.48 199.51
  Q 805.48 200.00 804.99 200.00
  L 775.02 200.00
  A 0.50 0.49 89.4 0 1 774.53 199.51
  Q 774.44 166.33 774.47 133.27
  C 774.50 103.87 733.16 106.87 733.06 133.31
  Z"
/>
<path fill="#21313c" d="
  M 1206.82 166.19
  C 1206.87 177.12 1216.47 177.78 1224.52 175.55
  Q 1225.05 175.40 1225.16 175.94
  L 1229.82 197.98
  A 0.60 0.59 75.5 0 1 1229.42 198.67
  C 1211.34 204.34 1184.00 203.12 1177.31 180.92
  Q 1175.81 175.95 1175.78 162.79
  Q 1175.71 137.32 1175.77 112.00
  A 0.55 0.54 -0.0 0 0 1175.22 111.46
  L 1161.17 111.52
  A 0.67 0.67 0.0 0 1 1160.50 110.85
  L 1160.50 88.50
  A 0.50 0.50 0.0 0 1 1161.00 88.00
  L 1174.97 88.00
  Q 1175.75 88.00 1175.75 87.22
  L 1175.75 61.75
  Q 1175.75 61.25 1176.25 61.25
  L 1206.25 61.25
  Q 1206.75 61.25 1206.75 61.75
  L 1206.75 87.27
  A 0.76 0.76 0.0 0 0 1207.52 88.03
  L 1226.99 87.98
  A 1.01 1.01 0.0 0 1 1228.00 88.99
  L 1228.00 110.51
  A 1.01 1.01 0.0 0 1 1226.99 111.52
  L 1207.44 111.46
  A 0.67 0.67 0.0 0 0 1206.76 112.13
  Q 1206.70 138.98 1206.82 166.19
  Z"
/>
<path fill="#21313c" d="
  M 446.21 116.49
  C 439.59 120.21 434.81 127.73 434.79 135.31
  Q 434.71 167.18 434.77 199.63
  A 0.37 0.37 0.0 0 1 434.40 200.00
  L 404.50 200.00
  Q 403.75 200.00 403.75 199.25
  L 403.75 88.50
  A 0.50 0.50 0.0 0 1 404.25 88.00
  L 433.24 88.00
  A 0.50 0.49 89.4 0 1 433.73 88.49
  L 433.80 107.21
  A 0.59 0.59 0.0 0 0 434.26 107.77
  Q 435.12 107.96 434.92 107.21
  Q 444.21 81.93 471.34 87.53
  Q 471.75 87.61 471.75 88.03
  L 471.75 114.26
  A 0.60 0.59 -84.5 0 1 471.04 114.85
  C 462.27 113.19 453.71 112.28 446.21 116.49
  Z"
/>
<path fill="#21313c" d="
  M 1115.00 107.19
  A 0.68 0.68 0.0 0 0 1116.33 107.38
  C 1121.22 90.44 1135.84 83.74 1152.38 87.58
  Q 1152.73 87.67 1152.73 88.03
  L 1152.79 114.23
  A 0.67 0.67 0.0 0 1 1151.97 114.89
  C 1137.99 111.62 1122.47 113.46 1117.33 128.77
  Q 1115.97 132.84 1115.98 140.87
  Q 1116.03 170.23 1115.99 199.49
  A 0.51 0.51 0.0 0 1 1115.48 200.00
  L 1085.50 200.00
  Q 1085.00 200.00 1085.00 199.50
  L 1085.00 88.50
  A 0.50 0.50 0.0 0 1 1085.50 88.00
  L 1114.50 88.00
  A 0.50 0.50 0.0 0 1 1115.00 88.50
  L 1115.00 107.19
  Z"
/>
<path fill="#21313c" d="
  M 473.83 127.07
  C 478.19 107.73 493.10 92.02 512.75 87.98
  C 537.76 82.83 563.97 92.02 573.98 116.76
  C 578.17 127.13 579.36 139.90 578.61 151.40
  Q 578.57 152.00 577.97 152.00
  L 503.25 152.00
  Q 502.73 152.00 502.71 152.52
  Q 502.36 166.45 512.02 173.92
  C 523.24 182.59 542.99 180.57 549.17 166.55
  Q 549.39 166.05 549.93 166.08
  L 577.43 167.86
  Q 578.04 167.90 577.90 168.49
  C 570.97 199.63 532.80 207.64 506.87 199.06
  C 476.10 188.89 467.28 156.18 473.83 127.07
  Z
  M 503.05 132.79
  L 549.51 132.71
  A 0.17 0.17 0.0 0 0 549.68 132.54
  L 549.68 132.37
  A 23.17 22.62 -0.1 0 0 526.47 109.79
  L 526.01 109.79
  A 23.17 22.62 -0.1 0 0 502.88 132.45
  L 502.88 132.62
  A 0.17 0.17 0.0 0 0 503.05 132.79
  Z"
/>
<path fill="#21313c" d="
  M 593.62 108.48
  C 599.53 95.90 611.41 90.03 625.03 87.78
  C 649.42 83.74 681.75 89.65 685.87 119.57
  A 0.42 0.42 0.0 0 1 685.48 120.05
  L 658.24 121.67
  Q 657.73 121.70 657.57 121.22
  Q 653.77 110.20 641.93 108.77
  C 635.22 107.96 622.09 110.26 621.79 119.21
  C 621.54 126.64 629.10 129.43 635.28 130.63
  Q 656.02 134.66 663.24 136.76
  C 673.73 139.80 684.15 145.75 687.28 156.86
  C 693.59 179.31 675.67 195.98 655.41 200.25
  C 629.04 205.81 593.53 200.01 588.03 168.42
  A 0.77 0.76 83.9 0 1 588.74 167.53
  L 617.75 165.98
  A 0.91 0.91 0.0 0 1 618.69 166.70
  C 623.00 186.39 660.98 181.91 656.58 166.36
  C 655.40 162.18 650.53 159.03 646.51 158.19
  C 632.94 155.36 617.13 153.73 605.02 146.73
  C 591.79 139.09 587.28 121.99 593.62 108.48
  Z"
/>
<path fill="#21313c" d="
  M 1037.50 184.74
  A 0.43 0.43 0.0 0 0 1036.69 184.53
  C 1026.07 203.26 1000.17 206.90 982.35 196.95
  Q 964.77 187.13 967.19 163.93
  C 969.14 145.19 984.46 138.05 1000.99 135.43
  Q 1012.54 133.60 1024.17 132.29
  C 1029.44 131.69 1035.99 130.26 1035.86 124.01
  Q 1035.58 111.47 1023.40 109.60
  C 1013.26 108.04 1003.42 111.57 999.54 121.71
  Q 999.38 122.12 998.94 122.09
  L 971.33 119.90
  Q 970.81 119.86 970.92 119.35
  C 978.12 86.99 1016.29 81.61 1042.47 90.46
  Q 1060.80 96.66 1065.52 113.87
  Q 1067.03 119.40 1067.02 132.73
  Q 1066.97 166.14 1067.01 199.48
  A 0.52 0.52 0.0 0 1 1066.49 200.00
  L 1038.25 200.00
  A 0.75 0.75 0.0 0 1 1037.50 199.25
  L 1037.50 184.74
  Z
  M 996.72 165.73
  C 992.46 186.17 1032.61 185.62 1035.88 163.33
  Q 1036.67 157.88 1036.10 148.75
  Q 1036.07 148.19 1035.55 148.42
  C 1028.20 151.62 1019.77 152.36 1011.96 153.69
  C 1004.59 154.94 998.35 157.92 996.72 165.73
  Z"
/>
<path fill="#0d6efd" d="
  M 72.93 177.47
  A 7.92 7.92 0.0 0 1 65.01 185.39
  A 7.92 7.92 0.0 0 1 57.09 177.47
  A 7.92 7.92 0.0 0 1 65.01 169.55
  A 7.92 7.92 0.0 0 1 72.93 177.47
  Z
  M 64.49 177.10
  A 0.48 0.48 0.0 0 0 64.75 178.01
  L 65.12 177.96
  A 0.49 0.49 0.0 0 0 65.08 176.99
  Q 64.78 176.96 64.49 177.10
  Z"
/>
<circle fill="#0d6efd" cx="142.51" cy="177.51" r="7.90"/>
</svg>
